<svg xmlns:xlink="http://www.w3.org/1999/xlink" width="178" height="50" class="styles_icon__SmMwo" viewBox="0 0 178 50" fill="none" xmlns="http://www.w3.org/2000/svg" aria-label="Cornucopias"><path fill="#FFFFFF" d="M21.83 15.711c-1.428 2.852-2.055 6.1-2.055 9.289 0 2.998.568 6.1 1.968 8.76 1.109 2.116 3.238 3.865 5.702 3.571 2.625-.323 4.594-2.587 5.688-4.894 1.341-2.822 1.983-6.011 1.997-9.142 0-3.028-.67-6.217-2.041-8.833-.948-1.822-3.47-3.66-5.644-3.35-2.537.352-4.491 2.365-5.614 4.585v.014Zm9.1 8.201c0 3.072-.029 6.379-1.035 9.348-.554 1.646-1.429 3.086-2.464 3.145-3.836.176-3.486-9.494-3.486-11.714 0-2.968-.146-12.213 3.486-12.625 3.514-.396 3.5 9.466 3.485 11.846h.014Zm19.236 8.408c-.992-3.484-1.998-6.967-2.99-10.436 1.662-1.293 2.814-4.027 2.858-6.04.088-3.572-3.062-6.085-6.46-5.865-2.523.206-5.031.427-7.54.677v.676c.263-.03.38-.045.642-.06 1.05-.102 1.138.486 1.138 1.368v20.385c0 1.073-.175 2.16-1.138 2.248-.262.03-.379.03-.641.06v.734c2.537-.235 5.075-.456 7.612-.676v-.735c-.306.03-.452.044-.758.059-.89.073-1.065-1.029-1.065-2.058V23.62l1.167-.074c.437-.03.758.206.89.676.889 3.292 1.793 6.584 2.682 9.891v.015c.117.338.57.985 1.43.911 1.53-.117 2.29-.161 3.82-.264v-.485c-.86.058-1.341-.97-1.662-1.97h.014Zm-7.423-10.274a33.3 33.3 0 0 1-.919.059V11.523c.32-.03.481-.044.817-.074 2.654-.294 3.427 2.675 3.354 4.82-.073 2.25-.642 5.439-3.238 5.762l-.014.015Zm63.465-14.124c-2.45-.074-4.506 1.705-5.644 3.806-1.473 2.734-2.07 5.909-2.07 9.01 0 3.1.612 6.26 1.983 9.039 1.108 2.234 3.15 4.291 5.731 4.365 2.537.073 4.608-1.926 5.716-4.1 1.371-2.705 1.998-5.82 1.998-8.863 0-3.13-.583-6.335-2.041-9.127-1.123-2.16-3.165-4.057-5.658-4.13h-.015Zm2.479 22.487c-.554 1.558-1.444 2.88-2.479 2.777-3.879-.367-3.5-9.582-3.5-12.184 0-2.601-.058-12.242 3.5-12.14 3.602.103 3.514 9.583 3.5 12.346 0 3.013 0 6.305-1.036 9.2h.015ZM92.88 32.951c-4.303-.03-3.734-9.538-3.72-12.066 0-2.88.132-12.302 3.909-12.287 2.012 0 3.237 3.41 3.543 5.335h.277V7.76h-.787c-.03.088-.044.132-.073.235-.073.25-.19.28-.612.28-.336 0-.657-.118-.992-.25-.408-.147-.86-.309-1.415-.324-2.625-.029-4.462 2.087-5.716 3.895-1.663 2.396-2.348 5.835-2.363 8.95 0 3.175.671 6.409 2.173 9.201 1.152 2.175 3.281 4.218 5.76 4.174 2.902-.044 4.594-2.924 5.046-5.643v-.06h-.831c-.32 2.264-1.764 4.763-4.23 4.748l.03-.015ZM122.001 9.01c-2.318-.133-4.652-.25-6.985-.353v.676h.102c1.065.044 1.138.632 1.138 1.528v20.385c0 1.073-.175 2.131-1.138 2.087h-.102v.735c2.61.118 3.908.191 6.519.338v-.735h-.204c-.89-.044-1.065-1.175-1.065-2.204V22.59c.262.044.54.088.817.102 1.939.103 3.762-.485 5.133-1.69 1.444-1.264 2.231-3.1 2.231-5.158.015-3.601-2.815-6.761-6.46-6.805l.014-.03Zm-1.093 12.536c-.19 0-.409-.03-.627-.059V9.774c.306.014.466.03.772.044 2.669.308 3.398 3.63 3.355 5.835-.044 2.307-.642 5.937-3.5 5.893ZM84.946 8.098c-2.26.015-3.398.03-5.658.074v.676h.641c.89-.015 1.254.573 1.254 1.999V28.41c0 2.337-1.224 4.32-3.208 4.365-2.391.044-3.5-1.75-3.5-4.542V10.48c0-.985.146-1.514.963-1.528h.54v-.676c-2.232.058-4.478.117-6.709.205v.676c1.108-.029 1.196.588 1.196 1.47v16.975c0 2.499.831 4.292 2.465 5.35 1.195.78 2.814 1.161 4.739 1.102 3.019-.102 5.337-2.263 5.41-5.379V10.817c0-1.808.73-2.028 1.284-2.043h.612v-.676h-.03Zm-21.7 1.279c.205 0 .292 0 .496-.03.831-.044 1.21.735 1.21 2.484v12.64a7670.642 7670.642 0 0 0-7.714-15.462c-1.983.118-2.975.177-4.958.309v.676c.292-.015.438-.03.715-.044.933-.059 1.356.779 1.356 2.748v19.665c0 1.22-.423 1.75-1.386 1.823h-.16v.514c.35-.03.525-.03.86-.059.278-.014.423-.029.7-.044 1.357-.088 2.042-.132 3.398-.206v-.514h-.175c-.977.059-1.385-.44-1.385-1.646V16.446a3997.76 3997.76 0 0 1 9.056 17.578c.612-.03.919-.044 1.531-.059V11.758c0-1.734.394-2.558 1.254-2.587h.073v-.676c-1.94.073-2.916.118-4.856.206v.676h-.015Zm72.872 25.293c-.963-.073-1.138-.631-1.138-1.719V12.066c0-.896.088-1.47 1.211-1.381.233.015.35.03.568.044v-.676a320.427 320.427 0 0 0-3.748-.309c-1.502-.117-2.245-.176-3.747-.279v.676c.233.015.35.03.568.044 1.123.074 1.211.676 1.211 1.558v20.9c0 1.072-.175 1.602-1.138 1.543-.306-.015-.452-.03-.758-.059v.735c1.546.103 2.319.161 3.864.28 1.546.117 2.319.175 3.865.308v-.735c-.306-.03-.452-.044-.758-.059v.015Z"></path><path fill="#FFFFFF" d="M40.439 39.903c-1.08.514-1.896 1.514-1.357 2.954l.044.132c.102.368.248 1.411-1.181 2.323-.058.029-.102.058-.16.088l-.132.088c-.102.059-.204.103-.32.162a21.83 21.83 0 0 1-2.042.808c-.423.147-.686.235-.686.235a17.75 17.75 0 0 1-3.34.69c-12.643 1.353-19.292-8.803-19.263-20.56.029-10.656 6.504-22.31 17.82-23.413 2.917-.28 6.869.44 8.356 3.41.919-2.367 2.64-4.865 5.294-5.35-.904-2.822-4.623-1-6.038.235-2.522-.75-4.826-.867-6.226-.808-.438.014-.934.058-1.473.117-6.621.72-12.702 4.218-17.091 9.215-3.85 4.38-6.49 9.965-6.971 15.844-.481-.132-1.065-.191-1.794-.088C1.196 26.396 0 28.483 0 28.483c3.602.162 5.717 4.1 6.723 7.143 1.196 3.645 3.368 7.143 6.372 9.524 4.609 3.66 10.69 5.173 16.538 4.776.146 0 .306-.029.452-.044h.043c.146 0 .307-.029.453-.044h.145c.22-.029.438-.058.657-.073 3.66-.764 6.868-1.852 9.785-4.306 1.458-1.132 2.64-2.72 1.968-4.557-.525-1.455-1.91-1.366-2.697-.999Zm137.517-4.218c-.496-6.173-4.958-10.861-9.45-14.624-.495-.426-1.02-.852-1.56-1.293-2.946-2.381-6.344-5.012-7.977-8.407-.379-.779-.554-1.646-.627-2.499-.219-2.44 1.269-5.32 3.938-5.246h.058c3.806-.03 8.443 7.422 3.835 7.995-1.735.206-2.508-1.543-2.508-1.543s-.292 4.703 2.712 4.659c4.084-.06 5.994-7.378 6.796-10.92-1.648.558-3.514.455-5.279-.25-3.296-1.294-5.658-1.323-5.658-1.323-5.075-.294-8.706 3.939-8.269 8.921.467 5.32 5.308 9.039 9.1 12.125 4.608 3.763 9.756 8.23 10.31 14.61.525 6.143-4.112 10.45-10.047 10.185-6.096-.28-12.148-5.262-12.629-11.435-.234-2.998.948-6.863 3.981-8.216 1.735-.646 3.485-.146 4.477 1.323.773 1.132.569 2.16-.642 3.234-.102.088-.16.132-.262.235.145.059.204.088.35.132 1.516.603 2.625.647 3.572.162 1.809-.94 2.115-3.204.788-5.218-2.056-3.116-6.562-3.85-9.683-2.307a.865.865 0 0 0-.19.117 8.213 8.213 0 0 0-2.625 2.278c-1.254-5.878-2.493-11.743-3.748-17.607a3.504 3.504 0 0 1-.291.206c-.321.22-1.458.985-2.931 1.293-.088.015-.117.03-.205.044.015.088.03.133.044.206 0 0 .146.735.365 1.808l-3.763 19.18c-.277 1.117-.656 1.705-1.793 1.69v.411c1.895.162 2.843.25 4.739.427v-.412c-.554-.103-.948-.28-1.152-.544-.146-.19-.204-.426-.16-.735.393-2.16.583-3.248.977-5.408 1.56-.456 2.333-.69 3.893-1.146.452 2.175.89 4.365 1.327 6.54.059.323.103.529.146.661.059.47.029.75-.102.882s-.408.191-.904.147v.411c.51.06.977.103 1.415.147.729 7.54 8.02 12.802 15.093 13.243 8.064.5 15.239-5.688 14.568-14.11l-.029-.03Zm-35.072-8.598c.54-2.94 1.079-5.879 1.619-8.833.539 2.66 1.079 5.32 1.619 7.966-1.298.338-1.955.514-3.252.852l.014.015Z"></path></svg>