<svg xmlns="http://www.w3.org/2000/svg" viewBox="0 0 162.5 36"><defs><style>.cls-1{isolation:isolate;}.cls-2,.cls-3{fill:#fff;}.cls-3{fill-rule:evenodd;}.cls-4{fill:#2ea9e2;}</style></defs><title>logo</title><g id="Calque_2" data-name="Calque 2"><g class="cls-1"><path class="cls-2" d="M45,9.58h6.55A12.64,12.64,0,0,1,55,9.92a6,6,0,0,1,2.67,1.63,7.73,7.73,0,0,1,1.7,2.88,13,13,0,0,1,.58,4.19,11.51,11.51,0,0,1-.55,3.78,7.7,7.7,0,0,1-1.9,3.13A6.27,6.27,0,0,1,55,27a10.87,10.87,0,0,1-3.17.37H45Zm3.59,3V24.33H51.3a9.41,9.41,0,0,0,2.17-.17,3.28,3.28,0,0,0,1.44-.73,3.7,3.7,0,0,0,.94-1.72,11.55,11.55,0,0,0,.37-3.25,10.67,10.67,0,0,0-.37-3.16,4.07,4.07,0,0,0-1-1.71,3.41,3.41,0,0,0-1.66-.84,16.5,16.5,0,0,0-2.94-.17Z"/><path class="cls-2" d="M66.19,27.32h-3.4V14.47H66V16.3a5.39,5.39,0,0,1,1.46-1.71,2.71,2.71,0,0,1,1.47-.41,4.25,4.25,0,0,1,2.23.64l-1,3a3,3,0,0,0-1.6-.56,1.91,1.91,0,0,0-1.21.39A2.75,2.75,0,0,0,66.47,19a20.36,20.36,0,0,0-.28,4.31Z"/><path class="cls-2" d="M72.58,12.73V9.58H76v3.15Zm0,14.59V14.47H76V27.32Z"/><path class="cls-2" d="M79.37,14.47h3.17v1.89a4.78,4.78,0,0,1,1.67-1.58,4.63,4.63,0,0,1,2.34-.6,4.9,4.9,0,0,1,3.8,1.75,7.11,7.11,0,0,1,1.56,4.89,7.37,7.37,0,0,1-1.57,5,4.9,4.9,0,0,1-3.82,1.78,4.37,4.37,0,0,1-1.93-.42,6.69,6.69,0,0,1-1.82-1.45v6.47h-3.4Zm3.36,6.21a5,5,0,0,0,.86,3.2,2.65,2.65,0,0,0,2.1,1,2.46,2.46,0,0,0,2-1,4.89,4.89,0,0,0,.79-3.12,4.63,4.63,0,0,0-.81-3,2.49,2.49,0,0,0-2-1,2.62,2.62,0,0,0-2.07,1A4.27,4.27,0,0,0,82.73,20.68Z"/><path class="cls-2" d="M94.62,9.58h6.55a12.64,12.64,0,0,1,3.38.34,6,6,0,0,1,2.67,1.63,7.86,7.86,0,0,1,1.7,2.88,13.27,13.27,0,0,1,.58,4.19A11.78,11.78,0,0,1,109,22.4a7.81,7.81,0,0,1-1.9,3.13A6.24,6.24,0,0,1,104.53,27a10.82,10.82,0,0,1-3.17.37H94.62Zm3.58,3V24.33h2.68a9.25,9.25,0,0,0,2.16-.17,3.26,3.26,0,0,0,1.45-.73,3.79,3.79,0,0,0,.94-1.72,11.61,11.61,0,0,0,.36-3.25,10.73,10.73,0,0,0-.36-3.16,4,4,0,0,0-1-1.71,3.36,3.36,0,0,0-1.66-.84,16.5,16.5,0,0,0-2.94-.17Z"/><path class="cls-2" d="M115.77,27.32h-3.41V14.47h3.16V16.3A5.52,5.52,0,0,1,117,14.59a2.71,2.71,0,0,1,1.47-.41,4.29,4.29,0,0,1,2.24.64l-1,3a3,3,0,0,0-1.6-.56,1.91,1.91,0,0,0-1.21.39,2.75,2.75,0,0,0-.78,1.42,20.36,20.36,0,0,0-.28,4.31Z"/><path class="cls-2" d="M121.37,20.72a6.9,6.9,0,0,1,.84-3.28A5.71,5.71,0,0,1,124.57,15a7.09,7.09,0,0,1,3.42-.83,6.41,6.41,0,0,1,4.78,1.89,6.58,6.58,0,0,1,1.87,4.79,6.61,6.61,0,0,1-1.89,4.84A6.33,6.33,0,0,1,128,27.61a7.52,7.52,0,0,1-3.38-.79,5.52,5.52,0,0,1-2.43-2.35A7.75,7.75,0,0,1,121.37,20.72Zm3.49.18a4.3,4.3,0,0,0,.9,2.93,2.92,2.92,0,0,0,2.24,1,2.89,2.89,0,0,0,2.24-1,4.35,4.35,0,0,0,.9-3,4.23,4.23,0,0,0-.9-2.9A2.87,2.87,0,0,0,128,17a2.9,2.9,0,0,0-2.24,1A4.28,4.28,0,0,0,124.86,20.9Z"/><path class="cls-2" d="M137.2,14.47h3.17v1.89A4.78,4.78,0,0,1,142,14.78a4.66,4.66,0,0,1,2.34-.6,4.9,4.9,0,0,1,3.8,1.75,7.11,7.11,0,0,1,1.56,4.89,7.32,7.32,0,0,1-1.57,5,4.9,4.9,0,0,1-3.81,1.78,4.41,4.41,0,0,1-1.94-.42,6.69,6.69,0,0,1-1.82-1.45v6.47h-3.4Zm3.37,6.21a4.91,4.91,0,0,0,.86,3.2,2.63,2.63,0,0,0,2.09,1,2.46,2.46,0,0,0,2-1,4.89,4.89,0,0,0,.79-3.12,4.63,4.63,0,0,0-.81-3,2.49,2.49,0,0,0-2-1,2.62,2.62,0,0,0-2.07,1A4.27,4.27,0,0,0,140.57,20.68Z"/><path class="cls-2" d="M151.07,27.32V24.67l4.82-5.53c.79-.9,1.38-1.54,1.76-1.92-.4,0-.92,0-1.57.05l-4.53,0V14.47h10.62v2.41l-4.91,5.66-1.73,1.88c.94-.06,1.53-.09,1.75-.09h5.27v3Z"/></g><path class="cls-3" d="M0,18A18,18,0,1,1,18,36,18,18,0,0,1,0,18Z"/><path class="cls-4" d="M18,6.69s-7.44,10.48-7.44,15.18a7.44,7.44,0,0,0,14.88,0C25.44,17.14,18,6.69,18,6.69Z"/></g></svg>