<svg width="71" height="65" viewBox="0 0 71 65" fill="none" xmlns="http://www.w3.org/2000/svg">
<rect width="71" height="65" fill="white"/>
<g filter="url(#filter0_i_716_20)">
<path d="M12.3944 11.9385L18.7752 3.27885L31.9925 2.36731L52.0463 2.82308L69.3656 31.9923L62.9848 45.2096L53.4136 60.25L48.856 62.0731H35.1829H22.8771L16.9521 59.3385L3.73478 36.55L2.82324 30.625L5.55786 23.3327L12.3944 11.9385Z" fill="url(#paint0_linear_716_20)"/>
</g>
<path d="M35.59 1.00769C39.7871 1.00769 43.9842 0.994309 48.1813 1.01438C49.8474 1.01452 51.4844 1.45094 52.9294 2.2802C53.857 2.82005 54.6853 3.51481 55.3783 4.33433C56.3923 5.5156 57.0846 6.88361 57.8558 8.21026C58.3546 9.06671 58.8686 9.91342 59.3631 10.7729C60.2105 12.2443 61.0438 13.7243 61.8917 15.1951C62.4063 16.088 62.9422 16.9682 63.4587 17.8593C64.261 19.2419 65.0499 20.6318 65.8534 22.0132C66.6442 23.3769 67.4556 24.731 68.2488 26.0947C69.1466 27.6391 69.9605 29.2249 70.1983 31.0217C70.3207 31.926 70.3001 32.844 70.1375 33.7419C69.9033 35.0296 69.4349 36.2255 68.7993 37.3581C68.3273 38.2012 67.8127 39.0205 67.3236 39.852C66.9666 40.4603 66.6241 41.0777 66.2689 41.6884C65.6813 42.6993 65.0858 43.706 64.4994 44.7182C63.9842 45.6081 63.4781 46.5029 62.9653 47.3946C62.3619 48.4427 61.753 49.4871 61.1515 50.5363C60.34 51.953 59.5347 53.3733 58.7239 54.7906C58.0547 55.9615 57.4142 57.1507 56.702 58.2949C55.6192 60.0345 54.2524 61.4992 52.3832 62.4232C51.5456 62.8368 50.6618 63.0923 49.7409 63.2547C48.396 63.4901 47.0426 63.4883 45.6855 63.4877C38.589 63.4832 31.4939 63.4812 24.4002 63.4816C23.1672 63.4816 21.9367 63.3977 20.7341 63.0966C19.0949 62.694 17.5984 61.847 16.4093 60.6489C15.6082 59.8484 14.9568 58.9123 14.388 57.9263C13.6581 56.6647 12.931 55.4025 12.2068 54.1398C11.3503 52.6495 10.5036 51.1543 9.63924 49.6665C8.86917 48.3368 8.08268 47.0163 7.30956 45.6878C6.74995 44.7261 6.20433 43.7565 5.64594 42.7936C4.85518 41.4281 4.05044 40.0698 3.26394 38.7012C2.81017 37.9104 2.33146 37.1324 1.94946 36.3088C1.16905 34.627 0.826583 32.8417 1.0851 30.9974C1.29189 29.552 1.7969 28.1654 2.56807 26.9256C3.0851 26.0838 3.55956 25.2151 4.05591 24.3605C4.92757 22.8611 5.8053 21.3648 6.67148 19.8642C7.22745 18.9037 7.76637 17.9335 8.32355 16.9736C8.85944 16.0491 9.4148 15.1354 9.94947 14.2103C10.4841 13.2851 11 12.3477 11.531 11.4219C12.0857 10.4615 12.6551 9.50892 13.2128 8.55089C13.7311 7.66098 14.2287 6.75952 14.7603 5.87813C16.0632 3.71694 17.8777 2.16767 20.3163 1.44565C21.1599 1.19686 22.0608 1.03141 22.9373 1.01985C27.1569 0.983966 31.3741 1.00769 35.59 1.00769ZM35.694 60.6428V60.6191C39.9519 60.6191 44.2068 60.6525 48.4623 60.6051C50.6174 60.5807 52.3552 59.6014 53.6405 57.8794C54.1217 57.2359 54.5189 56.5266 54.9252 55.8301C55.8406 54.2626 56.7372 52.6842 57.6429 51.1106C58.146 50.2365 58.6478 49.3612 59.1594 48.4919C59.6709 47.6227 60.2068 46.7675 60.7111 45.8946C61.2768 44.9159 61.8114 43.9201 62.3741 42.9396C63.2877 41.3463 64.2078 39.7571 65.1344 38.172C65.3674 37.7717 65.6326 37.3903 65.8534 36.984C66.2683 36.22 66.7524 35.4767 67.045 34.6665C67.75 32.7151 67.6661 30.7796 66.6563 28.9256C66.3078 28.2869 65.9726 27.6403 65.6168 27.0059C65.1707 26.2123 64.7168 25.4234 64.2549 24.6391C63.4574 23.2784 62.6442 21.9262 61.8528 20.5637C61.0304 19.1458 60.2312 17.7151 59.413 16.2954C58.6352 14.9455 57.851 13.5993 57.0602 12.2571C56.0262 10.4931 55.0213 8.71573 53.9483 6.9785C53.0809 5.574 51.8437 4.60258 50.2415 4.11414C49.2415 3.81 48.2202 3.74553 47.1873 3.74553C39.4448 3.74553 31.7017 3.74735 23.958 3.751C23.1897 3.75446 22.423 3.82057 21.6654 3.94869C20.5243 4.13969 19.5365 4.6701 18.6654 5.44504C17.8674 6.15429 17.2664 6.9931 16.7451 7.9195C15.9081 9.41464 15.0194 10.8818 14.1593 12.3641C13.8455 12.9049 13.5608 13.4627 13.2433 14.001C12.7116 14.9025 12.1593 15.7918 11.6246 16.6914C11.2554 17.3143 10.902 17.9469 10.5407 18.5771C10.2189 19.1367 9.8935 19.6938 9.57294 20.2547C9.26273 20.796 8.96468 21.3429 8.64898 21.8824C8.06261 22.8958 7.46467 23.9019 6.88499 24.9183C6.32416 25.8976 5.81442 26.908 5.21528 27.8636C4.61613 28.8192 4.16296 29.8046 3.9379 30.9116C3.7084 32.006 3.76115 33.1407 4.09119 34.2091C4.5334 35.6543 5.39715 36.8928 6.11552 38.1993C6.86552 39.5631 7.67817 40.8928 8.46163 42.2383C9.04192 43.2346 9.621 44.2316 10.1989 45.2292C10.7177 46.1215 11.2439 47.009 11.7585 47.9056C12.5352 49.2553 13.2992 50.6118 14.079 51.9597C14.8491 53.2906 15.6545 54.6008 16.4014 55.9445C17.0352 57.0838 17.7068 58.1854 18.7129 59.0376C19.263 59.5122 19.8892 59.8907 20.565 60.1574C21.5255 60.5284 22.5158 60.6495 23.5316 60.6495L35.694 60.6428Z" fill="url(#paint1_linear_716_20)"/>
<g filter="url(#filter1_d_716_20)">
<path d="M22.508 56.4414V37.105H25.9977C27.1526 37.105 28.3083 37.105 29.4648 37.105H32.932H43.3298C44.4855 37.105 45.6412 37.1093 46.7969 37.105C47.9429 37.1002 49.0901 37.1269 50.2805 37.0904C50.2805 36.7255 50.2854 36.4445 50.2805 36.1647C50.2684 35.6373 50.2197 35.6008 49.6656 35.6318C49.5038 35.6409 49.3414 35.6379 49.179 35.6379C40.4227 35.6379 31.6668 35.6365 22.9113 35.6336C22.5609 35.6336 22.2963 35.6945 22.0682 35.9822C21.8519 36.2511 21.6072 36.4958 21.3383 36.7121C21.0737 36.9268 20.9983 37.1786 20.9983 37.5071C21.0047 43.6685 21.0072 49.8299 21.0056 55.9913C21.0137 56.1437 21.0312 56.2955 21.0579 56.4457L22.508 56.4414ZM50.2751 17.6944C50.2751 17.2997 50.2842 16.9779 50.2751 16.6604C50.2611 16.2577 50.2252 16.2309 49.8036 16.2151C49.7227 16.2121 49.6418 16.2151 49.5603 16.2151H23.0475C22.9259 16.2151 22.7963 16.189 22.6826 16.2224C22.5183 16.2711 22.3389 16.3313 22.216 16.442C21.8997 16.7255 21.6224 17.0503 21.3073 17.3368C21.0786 17.5448 20.9891 17.7747 20.9897 18.0837C20.9983 21.0424 20.994 24.0016 20.9977 26.9609C21.0073 27.0951 21.0277 27.2283 21.0585 27.3593H22.5031V17.7559H23.2026C31.9379 17.7559 40.6733 17.7559 49.4089 17.7559C49.6881 17.7534 49.963 17.7182 50.2751 17.6969V17.6944ZM30.8103 27.3277V26.6537C30.8103 24.2612 30.8103 21.8686 30.8103 19.4761C30.8103 18.8191 30.8103 18.8191 30.1266 18.8313C30.0658 18.8313 30.005 18.8313 29.9441 18.8313C29.3736 18.8173 29.3711 18.8173 29.3693 19.3702C29.3632 21.9039 29.3588 24.4384 29.3559 26.9736C29.3559 27.1063 29.3991 27.2389 29.4314 27.4238H30.6266C30.3638 27.7109 30.1576 27.8982 30.0001 28.1196C29.8426 28.341 29.4162 28.3848 29.5256 28.807C29.6856 28.8143 29.8298 28.8258 29.9673 28.8258C36.5147 28.8258 43.0617 28.8258 49.6084 28.8258C49.71 28.8258 49.8109 28.8258 49.9125 28.8258C50.1613 28.8204 50.2775 28.6932 50.2775 28.4432C50.2726 28.1038 50.2775 27.7644 50.2775 27.3672H43.7945C41.626 27.3672 39.4569 27.3751 37.286 27.3672C35.1479 27.3544 33.0074 27.4086 30.8109 27.3301L30.8103 27.3277ZM23.876 14.8246C23.9058 14.8684 23.9368 14.9122 23.9648 14.9554C32.5763 14.9554 41.1877 14.9554 49.7988 14.9554C49.9198 14.9514 50.0404 14.9404 50.1601 14.9225C50.1771 14.9225 50.1917 14.8982 50.2063 14.8848C50.2209 14.8714 50.2343 14.8562 50.2763 14.8124C50.2763 14.5199 50.2891 14.1969 50.2726 13.8751C50.255 13.5223 50.1437 13.4414 49.7702 13.4603C49.6704 13.4657 49.5701 13.4736 49.4703 13.4736C41.8714 13.4736 34.2724 13.4746 26.6735 13.4767C26.1868 13.4767 25.6534 13.366 25.2337 13.5375C24.814 13.709 24.508 14.1604 24.1582 14.4955C24.0576 14.6008 23.9628 14.7115 23.8742 14.827L23.876 14.8246ZM23.82 34.2383C24.5633 34.3855 49.8243 34.3599 50.2519 34.2297V32.8386H25.9332C25.771 32.8289 25.6084 32.8311 25.4466 32.8453C25.3146 32.8654 25.1588 32.9013 25.0676 32.9876C24.6607 33.3763 24.272 33.7857 23.8182 34.2407L23.82 34.2383ZM50.2799 31.5777C50.2799 31.2127 50.289 30.8964 50.2799 30.5777C50.2653 30.1695 50.1625 30.0813 49.7641 30.091C49.1984 30.105 48.6321 30.1269 48.0664 30.1263C41.5015 30.1231 34.9366 30.1188 28.3718 30.1136C28.2166 30.1136 28.011 30.1136 27.9149 30.2078C27.4946 30.6075 27.1047 31.0393 26.7081 31.4639C26.6947 31.4779 26.7276 31.5351 26.7404 31.5777H50.2799ZM26.6096 12.0399L26.6905 12.1616H27.5329L48.8645 12.1652C49.2088 12.1652 49.553 12.1652 49.8985 12.1707C50.112 12.1738 50.2635 12.088 50.2684 11.8666C50.2751 11.4931 50.2574 11.1184 50.2489 10.7048H28.6589C28.4971 10.7048 28.334 10.6963 28.1722 10.7096C28.0761 10.7182 27.9563 10.7328 27.8924 10.793C27.4581 11.1981 27.036 11.6208 26.6096 12.0399ZM29.3687 9.40246H30.4101C36.831 9.4049 43.2519 9.40652 49.6729 9.40733C49.8645 9.40733 50.0555 9.37266 50.2745 9.35137C50.2745 8.95964 50.2672 8.63726 50.2745 8.31731C50.2836 8.03507 50.1589 7.90246 49.8791 7.91037C49.7781 7.91037 49.6765 7.91584 49.5749 7.91584C43.4172 7.91584 37.2596 7.91584 31.1023 7.91584C30.9502 7.91584 30.7471 7.92983 30.6534 8.0229C30.2179 8.4566 29.8091 8.92375 29.3687 9.40246ZM25.216 56.4779V38.2571H23.8365C23.7039 38.9542 23.7306 56.023 23.8608 56.4779H25.216ZM30.7708 56.4627V38.231H29.3663C29.3663 44.3192 29.3632 50.377 29.3663 56.4627H30.7708ZM28.022 56.4579V38.2425H26.5828V56.4579H28.022ZM28.0579 27.3824C28.0579 24.5418 28.0579 21.7711 28.0536 19.0004C28.0536 18.9323 27.9831 18.8641 27.9423 18.7905L26.5494 18.8708V27.3258C27.0329 27.4749 27.5074 27.3988 28.0579 27.38V27.3824ZM23.8225 18.8477C23.696 19.7212 23.7312 26.9268 23.8517 27.3605H25.202C25.3146 26.4049 25.2744 19.2632 25.1637 18.8477H23.8225Z" fill="white"/>
</g>
<defs>
<filter id="filter0_i_716_20" x="2.82324" y="2.36731" width="66.5425" height="61.7058" filterUnits="userSpaceOnUse" color-interpolation-filters="sRGB">
<feFlood flood-opacity="0" result="BackgroundImageFix"/>
<feBlend mode="normal" in="SourceGraphic" in2="BackgroundImageFix" result="shape"/>
<feColorMatrix in="SourceAlpha" type="matrix" values="0 0 0 0 0 0 0 0 0 0 0 0 0 0 0 0 0 0 127 0" result="hardAlpha"/>
<feOffset dy="4"/>
<feGaussianBlur stdDeviation="1"/>
<feComposite in2="hardAlpha" operator="arithmetic" k2="-1" k3="1"/>
<feColorMatrix type="matrix" values="0 0 0 0 0 0 0 0 0 0 0 0 0 0 0 0 0 0 0.25 0"/>
<feBlend mode="normal" in2="shape" result="effect1_innerShadow_716_20"/>
</filter>
<filter id="filter1_d_716_20" x="16.9897" y="7.91003" width="37.2944" height="56.5679" filterUnits="userSpaceOnUse" color-interpolation-filters="sRGB">
<feFlood flood-opacity="0" result="BackgroundImageFix"/>
<feColorMatrix in="SourceAlpha" type="matrix" values="0 0 0 0 0 0 0 0 0 0 0 0 0 0 0 0 0 0 127 0" result="hardAlpha"/>
<feOffset dy="4"/>
<feGaussianBlur stdDeviation="2"/>
<feComposite in2="hardAlpha" operator="out"/>
<feColorMatrix type="matrix" values="0 0 0 0 0 0 0 0 0 0 0 0 0 0 0 0 0 0 0.5 0"/>
<feBlend mode="normal" in2="BackgroundImageFix" result="effect1_dropShadow_716_20"/>
<feBlend mode="normal" in="SourceGraphic" in2="effect1_dropShadow_716_20" result="shape"/>
</filter>
<linearGradient id="paint0_linear_716_20" x1="38.3732" y1="-10.3942" x2="38.3732" y2="66.175" gradientUnits="userSpaceOnUse">
<stop offset="0.511905" stop-color="#7D6FE5"/>
<stop offset="0.791667" stop-color="#7565F4"/>
</linearGradient>
<linearGradient id="paint1_linear_716_20" x1="35.6385" y1="1" x2="35.6385" y2="63.4878" gradientUnits="userSpaceOnUse">
<stop offset="0.366737" stop-color="#7065F0"/>
<stop offset="1" stop-color="#8A81F7"/>
</linearGradient>
</defs>
</svg>
