<svg xmlns:xlink="http://www.w3.org/1999/xlink" viewBox="0 0 241 26" fill="none" xmlns="http://www.w3.org/2000/svg" class="my-auto md:h-14 h-6 md:w-auto w-36" width="241"  height="26" ><g filter="url(#filter0_d_343_5833)" class="dark:fill-white fill-trdark" fill="#FFFFFF"><path d="M14.8231 3.91422H4.59131V0.799561H28.6709V3.91422H18.4392V17.764H14.8196V3.91422H14.8231Z" class="dark:fill-white fill-black" fill="#FFFFFF"></path><path d="M37.8975 0.799316H52.8301C55.5784 0.799316 57.8272 3.05917 57.8272 5.82083V12.7457C57.8272 15.5074 55.5784 17.7673 52.8301 17.7673H37.8975C35.1492 17.7673 32.9004 15.5074 32.9004 12.7457V5.82083C32.9004 3.05917 35.1492 0.799316 37.8975 0.799316ZM38.6964 14.6491H52.0346C53.2296 14.6491 54.2111 13.6663 54.2111 12.462V6.10115C54.2111 4.89682 53.2331 3.91397 52.0346 3.91397H38.6964C37.5014 3.91397 36.5199 4.89682 36.5199 6.10115V12.462C36.5199 13.6628 37.498 14.6491 38.6964 14.6491V14.6491Z" fill="#FFFFFF"></path><path d="M81.9943 17.7638L76.367 10.8389H65.6669V17.7638H62.0474V0.799316H65.6669V7.72423H76.367L81.9943 0.799316H86.6642L79.7696 9.28156L86.6642 17.7638H81.9943Z" fill="#FFFFFF"></path><path d="M114.122 17.7638H95.8833C93.1351 17.7638 90.8862 15.504 90.8862 12.7423V5.81742C90.8862 3.05575 93.1351 0.795898 95.8833 0.795898H114.122V3.91055H96.6823C95.4873 3.91055 94.5058 4.8934 94.5058 6.09773V12.4586C94.5058 13.6594 95.4873 14.6457 96.6823 14.6457H114.122V17.7604V17.7638ZM114.122 7.72428H98.2975V10.8389H114.122V7.72428Z" fill="#FFFFFF"></path><path d="M137.431 17.7638C136.184 17.7638 135.12 17.2655 134.317 16.3034L133.525 15.3551C133.525 15.3551 133.518 15.3448 133.515 15.3413L125.343 5.55436L124.878 4.99718C124.571 4.63034 124.148 4.42962 123.669 4.42962H121.968V17.7603H118.348V0.799316H124.192C125.439 0.799316 126.503 1.29766 127.306 2.25974L128.098 3.20798C128.098 3.20798 128.105 3.21837 128.108 3.22183L136.28 13.0088L136.745 13.5659C137.052 13.9328 137.475 14.1335 137.954 14.1335H139.655V0.799316H143.275V17.7638H137.431Z" fill="#FFFFFF"></path><path d="M167.041 17.7638L162.757 12.4931H153.297C152.102 12.4931 151.12 13.476 151.12 14.6803V17.7638H147.5V14.4C147.5 12.7077 148.355 11.1365 149.76 10.2056C149.911 10.1052 150.066 10.0152 150.228 9.93218C150.672 9.70377 151.151 9.54112 151.643 9.4546C151.916 9.40615 152.195 9.38192 152.473 9.38192H154.512V9.37154H166.049C166.917 9.37154 167.623 8.65863 167.623 7.78999V5.50245C167.623 4.63034 166.914 3.92089 166.049 3.92089H147.504V0.806237H166.673C168.908 0.806237 170.74 2.64735 170.74 4.8899V8.41638C170.74 8.57211 170.729 8.73131 170.712 8.88358C170.533 10.4305 169.476 11.7525 168.016 12.2682L167.988 12.2786C167.792 12.3478 167.589 12.3997 167.379 12.4377L167.416 12.4827L171.714 17.7707H167.045L167.041 17.7638ZM179.539 0.799316V17.7638H175.919V0.799316H179.539ZM188.765 0.799316H203.698C206.446 0.799316 208.695 3.05917 208.695 5.82083V12.7458C208.695 15.5074 206.446 17.7673 203.698 17.7673H188.765C186.017 17.7673 183.768 15.5074 183.768 12.7458V5.82083C183.768 3.05917 186.017 0.799316 188.765 0.799316ZM189.564 14.6492H202.902C204.097 14.6492 205.079 13.6663 205.079 12.462V6.10115C205.079 4.89682 204.101 3.91397 202.902 3.91397H189.564C188.369 3.91397 187.388 4.89682 187.388 6.10115V12.462C187.388 13.6628 188.366 14.6492 189.564 14.6492V14.6492ZM223.152 3.91397H212.92V0.799316H237V3.91397H226.768V17.7638H223.149V3.91397H223.152Z" fill="url(&quot;#paint0_linear_343_5833&quot;)"></path></g><defs><filter id="filter0_d_343_5833" x="0.591309" y="0.795898" width="240.409" height="24.9749" filterUnits="userSpaceOnUse" color-interpolation-filters="sRGB"><feFlood flood-opacity="0" result="BackgroundImageFix"></feFlood><feColorMatrix in="SourceAlpha" type="matrix" values="0 0 0 0 0 0 0 0 0 0 0 0 0 0 0 0 0 0 127 0" result="hardAlpha"></feColorMatrix><feOffset dy="4"></feOffset><feGaussianBlur stdDeviation="2"></feGaussianBlur><feComposite in2="hardAlpha" operator="out"></feComposite><feColorMatrix type="matrix" values="0 0 0 0 0 0 0 0 0 0 0 0 0 0 0 0 0 0 0.25 0"></feColorMatrix><feBlend mode="normal" in2="BackgroundImageFix" result="effect1_dropShadow_343_5833"></feBlend><feBlend mode="normal" in="SourceGraphic" in2="effect1_dropShadow_343_5833" result="shape"></feBlend></filter><linearGradient id="paint0_linear_343_5833" x1="0" y1="0" x2="50%" y2="100%"><stop offset="0%" stop-color="#FF0098"><animate attributeName="stop-color" values="#FF0098; #00CFFF; #FF0098" dur="4s" repeatCount="indefinite"></animate></stop><stop offset="100%" stop-color="#00CFFF"><animate attributeName="stop-color" values="#00CFFF; #FF0098; #00CFFF" dur="4s" repeatCount="indefinite"></animate></stop></linearGradient></defs><defs><linearGradient id="paint0_linear_343_5833" x1="0" y1="0" x2="50%" y2="100%"><stop offset="0%" stop-color="#FF0098"><animate attributeName="stop-color" values="#FF0098; #00CFFF; #FF0098" dur="4s" repeatCount="indefinite"></animate></stop><stop offset="100%" stop-color="#00CFFF"><animate attributeName="stop-color" values="#00CFFF; #FF0098; #00CFFF" dur="4s" repeatCount="indefinite"></animate></stop></linearGradient></defs></svg>